<svg xmlns="http://www.w3.org/2000/svg" version="1.1" xmlns:xlink="http://www.w3.org/1999/xlink" xmlns:svgjs="http://svgjs.dev/svgjs" width="1440" height="560" preserveAspectRatio="none" viewBox="0 0 1440 560"><g mask="url(&quot;#SvgjsMask1000&quot;)" fill="none"><rect width="1440" height="560" x="0" y="0" fill="#1e3266"></rect><path d="M1464 560L0 560 L0 308.88Q27.45 264.33, 72 291.78Q129.92 277.69, 144 335.61Q163.28 282.89, 216 302.17Q266.75 232.92, 336 283.67Q388.25 263.92, 408 316.16Q460.8 296.96, 480 349.75Q547.58 297.33, 600 364.91Q641.22 334.13, 672 375.36Q678 309.36, 744 315.36Q809.34 260.7, 864 326.04Q912.81 302.85, 936 351.66Q946.58 290.24, 1008 300.81Q1061.14 233.95, 1128 287.09Q1190.03 277.12, 1200 339.14Q1230.69 297.83, 1272 328.53Q1329.18 313.71, 1344 370.89Q1359.01 265.9, 1464 280.91z" fill="#182f5d"></path><path d="M1512 560L0 560 L0 350.1Q70.52 348.62, 72 419.14Q96.3 371.44, 144 395.74Q200.48 380.22, 216 436.69Q240.38 389.06, 288 413.44Q293.59 347.03, 360 352.63Q401.19 321.81, 432 363Q497.32 308.32, 552 373.64Q618.73 320.37, 672 387.09Q752.22 347.31, 792 427.53Q794.98 358.51, 864 361.49Q923.75 349.24, 936 408.99Q989.62 390.61, 1008 444.22Q1019.36 383.58, 1080 394.94Q1153.11 348.05, 1200 421.16Q1272.48 373.64, 1320 446.13Q1333.08 339.21, 1440 352.29Q1481.9 322.19, 1512 364.09z" fill="#25467d"></path><path d="M1512 560L0 560 L0 464.57Q51.77 444.34, 72 496.1Q102.14 454.24, 144 484.38Q176.05 396.43, 264 428.48Q338.07 382.55, 384 456.62Q467.53 420.15, 504 503.69Q550.7 430.39, 624 477.1Q656.34 389.44, 744 421.77Q811.37 369.13, 864 436.5Q937.56 390.06, 984 463.62Q1037.83 397.44, 1104 451.27Q1161.2 436.47, 1176 493.66Q1228.38 426.04, 1296 478.41Q1323.68 434.09, 1368 461.77Q1425.75 447.52, 1440 505.27Q1440.11 433.38, 1512 433.48z" fill="#356cb1"></path><path d="M1488 560L0 560 L0 559.38Q12.66 500.04, 72 512.69Q122.38 443.07, 192 493.44Q297.19 478.63, 312 583.83Q313.13 512.96, 384 514.08Q410 468.08, 456 494.07Q542.15 460.23, 576 546.38Q645.5 495.88, 696 565.37Q743.2 540.57, 768 587.76Q777.74 525.5, 840 535.23Q910.55 485.78, 960 556.33Q1005.62 529.95, 1032 575.57Q1047.89 519.46, 1104 535.35Q1176.74 488.09, 1224 560.83Q1268.94 533.77, 1296 578.7Q1308.92 519.62, 1368 532.54Q1441.87 486.41, 1488 560.28z" fill="white"></path></g><defs><mask id="SvgjsMask1000"><rect width="1440" height="560" fill="#ffffff"></rect></mask></defs></svg>