<svg xmlns="http://www.w3.org/2000/svg" version="1.1" xmlns:xlink="http://www.w3.org/1999/xlink" xmlns:svgjs="http://svgjs.dev/svgjs" width="1920" height="1080" preserveAspectRatio="none" viewBox="0 0 1920 1080"><g mask="url(&quot;#SvgjsMask1029&quot;)" fill="none"><rect width="1920" height="1080" x="0" y="0" fill="rgba(118, 173, 229, 1)"></rect><path d="M0,617.944C115.163,619.689,156.056,455.807,251.495,391.334C343.624,329.097,477.959,337.35,545.777,249.248C617.785,155.703,635.085,27.907,621.521,-89.361C607.756,-208.364,546.043,-314.685,469.856,-407.133C392.248,-501.305,304.263,-612.27,182.617,-621.937C61.349,-631.574,-25.798,-511.41,-133.627,-455.093C-216.928,-411.587,-307.538,-389.391,-379.153,-328.538C-460.301,-259.584,-538.257,-183.173,-572.358,-82.293C-610.176,29.584,-647.351,167.941,-579.703,264.742C-510.772,363.378,-349.407,321.174,-246.644,383.786C-147.832,443.99,-115.695,616.191,0,617.944" fill="#2470be"></path><path d="M1920 1799.71C2049.495 1765.454 2167.982 1713.609 2279.788 1639.841 2390.358 1566.8890000000001 2502.625 1491.453 2564.63 1374.393 2628.643 1253.5430000000001 2654.386 1112.498 2630.434 977.855 2606.881 845.457 2511.5789999999997 744.5899999999999 2433.158 635.346 2346.533 514.673 2278.023 376.09299999999996 2147.522 305.13199999999995 2001.637 225.80499999999995 1829.558 184.27099999999996 1667.132 218.812 1499.454 254.47000000000003 1345.262 356.34000000000003 1246.807 496.67499999999995 1152.426 631.202 1169.896 806.2080000000001 1141.4769999999999 968.065 1111.987 1136.022 1027.606 1301.805 1076.774 1465.089 1128.3310000000001 1636.306 1246.62 1803.228 1412.8229999999999 1869.183 1574.7069999999999 1933.424 1751.627 1844.251 1920 1799.71" fill="#dceaf8"></path></g><defs><mask id="SvgjsMask1029"><rect width="1920" height="1080" fill="#ffffff"></rect></mask></defs></svg>