<svg xmlns="http://www.w3.org/2000/svg" version="1.1" xmlns:xlink="http://www.w3.org/1999/xlink" xmlns:svgjs="http://svgjs.dev/svgjs" width="1440" height="560" preserveAspectRatio="none" viewBox="0 0 1440 560"><g mask="url(&quot;#SvgjsMask1013&quot;)" fill="none"><rect width="1440" height="560" x="0" y="0" fill="rgba(118, 173, 229, 1)"></rect><path d="M0,523.633C96.258,527.077,167.893,437.057,239.428,372.557C301.297,316.773,351.624,252.157,385.497,176.051C419.111,100.527,453.38,17.854,432.951,-62.249C413.069,-140.211,333.143,-182.243,278.954,-241.715C226.395,-299.397,192.919,-380.441,119.339,-406.432C44.799,-432.762,-35.25,-400.612,-111.468,-379.627C-188.931,-358.299,-269.743,-339.685,-327.171,-283.495C-386.995,-224.961,-430.484,-146.159,-435.471,-62.611C-440.307,18.42,-389.701,88.772,-353.733,161.544C-318.904,232.013,-283.595,299.581,-228.665,355.809C-161.229,424.838,-96.44,520.182,0,523.633" fill="#2470be"></path><path d="M1440 1181.6860000000001C1556.848 1186.9850000000001 1664.001 1124.894 1761.844 1060.799 1859.01 997.1469999999999 1961.8490000000002 925.366 1999.187 815.3720000000001 2035.538 708.285 1988.6190000000001 594.257 1957.079 485.655 1929.393 390.324 1894.778 297.224 1827.504 224.226 1761.533 152.64100000000002 1674.241 107.69200000000001 1581.495 78.113 1487.048 47.99199999999996 1387.866 31.26400000000001 1291.185 53.182000000000016 1190.78 75.94400000000002 1108.632 138.77999999999997 1028.54 203.46800000000002 933.1800000000001 280.488 811.418 346.506 780.993 465.249 750.091 585.853 804.45 714.556 870.555 820.057 932.02 918.152 1038.662 970.379 1136.383 1032.437 1233.549 1094.143 1325.014 1176.472 1440 1181.6860000000001" fill="#dceaf8"></path></g><defs><mask id="SvgjsMask1013"><rect width="1440" height="560" fill="#ffffff"></rect></mask></defs></svg>