<svg xmlns="http://www.w3.org/2000/svg" version="1.1" xmlns:xlink="http://www.w3.org/1999/xlink" xmlns:svgjs="http://svgjs.dev/svgjs" width="1920" height="1440" preserveAspectRatio="none" viewBox="0 0 1920 1440"><g mask="url(&quot;#SvgjsMask1034&quot;)" fill="none"><rect width="1920" height="1440" x="0" y="0" fill="rgba(21, 67, 96, 1)"></rect><path d="M0,474.187C106.538,499.15,225.437,552.864,320.664,498.963C415.661,445.192,415.351,309.634,463.657,211.745C513.853,110.025,607.142,25.659,610.183,-87.731C613.405,-207.885,560.813,-326.928,480.501,-416.356C400.86,-505.037,286.59,-554.532,169.76,-578.148C59.172,-600.503,-59.771,-597.132,-160.287,-545.888C-253.537,-498.349,-286.631,-386.817,-357.19,-309.506C-430.288,-229.413,-561.262,-190.107,-582.111,-83.695C-602.919,22.511,-524.592,123.569,-458.888,209.567C-402.484,283.392,-317.213,321.948,-236.73,368.359C-160.304,412.431,-85.897,454.06,0,474.187" fill="#0e2c3e"></path><path d="M1920 1882.092C2008.063 1887.6680000000001 2104.375 1889.791 2175.506 1837.576 2245.642 1786.091 2261.843 1691.429 2291.27 1609.5529999999999 2318.322 1534.286 2340.285 1459.579 2340.107 1379.598 2339.906 1289.404 2329.1639999999998 1200.5720000000001 2290.176 1119.24 2241.949 1018.636 2198.175 888.559 2090.579 859.063 1982.7 829.489 1891.404 945.784 1785.166 980.798 1683.71 1014.236 1544.712 973.898 1481.3029999999999 1059.867 1416.93 1147.142 1478.91 1270.774 1491.8690000000001 1378.444 1501.555 1458.922 1514.2649999999999 1536.183 1547.527 1610.103 1580.952 1684.385 1618.689 1758.449 1684.473 1806.4859999999999 1752.44 1856.117 1836.009 1876.774 1920 1882.092" fill="#1c5a82"></path></g><defs><mask id="SvgjsMask1034"><rect width="1920" height="1440" fill="#ffffff"></rect></mask></defs></svg>